<?xml version="1.0" ?><!DOCTYPE svg  PUBLIC '-//W3C//DTD SVG 1.1//EN'  'http://www.w3.org/Graphics/SVG/1.1/DTD/svg11.dtd'><svg enable-background="new 0 0 128 128" height="128px" id="Layer_1" version="1.1" viewBox="0 0 128 128" width="128px" xml:space="preserve" xmlns="http://www.w3.org/2000/svg" xmlns:xlink="http://www.w3.org/1999/xlink"><path d="M120.2,32.3c-3.1-3.1-8.2-3.1-11.3,0L66,75.2L43.2,52.3c-3.1-3.1-8.2-3.1-11.3,0c-3.1,3.1-3.1,8.2,0,11.3  l28.5,28.5c1.6,1.6,3.6,2.3,5.7,2.3s4.1-0.8,5.7-2.3l48.6-48.6C123.4,40.5,123.4,35.4,120.2,32.3z M118.8,42.2L70.3,90.7  c-1.1,1.1-2.6,1.8-4.2,1.8s-3.1-0.6-4.2-1.8L33.3,62.2c-1.1-1.1-1.8-2.6-1.8-4.2s0.6-3.1,1.8-4.2c1.1-1.1,2.6-1.8,4.2-1.8  c1.6,0,3.1,0.6,4.2,1.8L66,78l44.3-44.3c1.1-1.1,2.6-1.8,4.2-1.8s3.1,0.6,4.2,1.8c1.1,1.1,1.8,2.6,1.8,4.2S120,41,118.8,42.2z" fill="#3B97D3"/><path d="M110.4,56.2c0.4,2.4,0.6,5,0.6,7.5c0,26.5-21.5,48-48,48s-48-21.5-48-48s21.5-48,48-48  c16.2,0,30.5,8.1,39.2,20.4l2.9-2.9c-9.4-13-24.8-21.5-42.1-21.5c-28.7,0-52,23.3-52,52s23.3,52,52,52s52-23.3,52-52  c0-3.8-0.4-7.4-1.2-10.9L110.4,56.2z" fill="#2C3E50"/></svg>